<svg xmlns="http://www.w3.org/2000/svg" xmlns:xlink="http://www.w3.org/1999/xlink" width="118.333" height="118.333" viewBox="0 0 118.333 118.333">
  <defs>
    <linearGradient id="linear-gradient" x1="0.129" x2="0.883" y2="1" gradientUnits="objectBoundingBox">
      <stop offset="0" stop-color="#ff8592"/>
      <stop offset="1" stop-color="#b871bd"/>
    </linearGradient>
  </defs>
  <g id="volunteer" transform="translate(0)">
    <path id="Tracé_240" data-name="Tracé 240" d="M118,46.97a5.372,5.372,0,0,0-9.9-.435l-.919,1.809,1.982-8.076a5.938,5.938,0,1,0-11.534-2.83l-2.235,9.108V32.321a5.938,5.938,0,1,0-11.876,0V46.547L80.731,35.2A5.938,5.938,0,0,0,69.2,38.032l7.1,28.941c-.49-.074-1-.136-1.477-.17L69.1,57.763a8.1,8.1,0,0,0-7.3-3.748c.432-3.8.557-6.8.59-7.845l8.035-17.365A6.044,6.044,0,0,0,59.461,23.7L57.109,28.33l3.012-12.275a6.714,6.714,0,0,0-13.042-3.2L43.8,26.226V6.715a6.715,6.715,0,0,0-13.429,0V26.226l-3.931-16.02a6.714,6.714,0,1,0-13.042,3.2l1.989,8.108a1.737,1.737,0,0,0,3.373-.828l-1.989-8.108a3.241,3.241,0,1,1,6.3-1.545L30.419,41a1.737,1.737,0,0,0,3.424-.414V6.714a3.241,3.241,0,1,1,6.482,0V40.591a1.737,1.737,0,0,0,3.424.414l6.7-27.323a3.241,3.241,0,0,1,6.3,1.545L50.142,42.146a1.737,1.737,0,0,0,3.235,1.2l9.195-18.1.028-.057a2.57,2.57,0,1,1,4.665,2.159L59.08,45.036a1.741,1.741,0,0,0-.16.693,100.1,100.1,0,0,1-1.187,12.294C56.376,66.4,54.14,72.292,51.267,75.049a9.505,9.505,0,0,0-2.927,6.818v1.349H24.129v-.885a16.583,16.583,0,0,0-3.98-10.816c-6.868-7.987-14.5-28.851-16.672-35.056a.079.079,0,0,1,.006-.07.084.084,0,0,1,.058-.044A5.8,5.8,0,0,1,9.759,38.89l7.373,11.641a1.735,1.735,0,0,0,1.548.805,25.105,25.105,0,0,1,5.174.763c.02,0,.039.006.059.01.041.009.082.016.124.022l.077.009c.018,0,.034,0,.052.006a17.258,17.258,0,0,1,10.094,4.867,1.737,1.737,0,1,0,2.458-2.454,20.793,20.793,0,0,0-11.049-5.717L20.414,27.432a1.737,1.737,0,1,0-3.373.828l4.884,19.9a23.258,23.258,0,0,0-2.36-.284L12.693,37.032a9.28,9.28,0,0,0-9.941-4.069A3.561,3.561,0,0,0,.2,37.608c1.2,3.425,3.673,10.222,6.746,17.27,3.881,8.9,7.437,15.26,10.569,18.9a13.107,13.107,0,0,1,3.14,8.551v.885h-.286a4.057,4.057,0,0,0-4.052,4.052v4.674A4.057,4.057,0,0,0,20.369,96h.286v20.6a1.737,1.737,0,0,0,1.737,1.737H50.076a1.737,1.737,0,0,0,1.737-1.737V96h.373a4.057,4.057,0,0,0,4.052-4.052V87.268a4.057,4.057,0,0,0-4.052-4.052h-.373V81.867a6.015,6.015,0,0,1,1.858-4.312c3.112-2.986,5.116-8.192,6.406-13.537C66.308,80.546,70.925,87,72.732,89.1a10.791,10.791,0,0,1,2.585,7.04v1.078h-.078a3.7,3.7,0,0,0-3.691,3.691v3.945a3.7,3.7,0,0,0,3.691,3.691h.078v8.05a1.737,1.737,0,0,0,1.737,1.737h23.366a1.737,1.737,0,0,0,1.737-1.737v-8.053a3.694,3.694,0,0,0,3.627-3.688v-3.945a3.694,3.694,0,0,0-3.627-3.688V95.749a4.805,4.805,0,0,1,1.485-3.443c2.152-2.065,3.888-5.519,5.16-10.267a1.737,1.737,0,0,0-3.355-.9c-1.106,4.127-2.522,7.04-4.21,8.66a8.3,8.3,0,0,0-2.554,5.95v1.47H78.79V96.141a14.265,14.265,0,0,0-3.425-9.305c-5.689-6.617-12.02-23.814-13.946-29.288a4.629,4.629,0,0,1,4.742,2.074l6.223,9.825a1.732,1.732,0,0,0,1.548.805,20.786,20.786,0,0,1,4.29.636c.02,0,.04.006.06.011.04.009.081.016.122.021l.076.009c.017,0,.034,0,.052.006a14.3,14.3,0,0,1,8.344,4.029,1.737,1.737,0,1,0,2.458-2.455,17.842,17.842,0,0,0-9.3-4.869L72.571,37.2a2.464,2.464,0,0,1,4.787-1.175l6.207,25.3a1.737,1.737,0,0,0,3.423-.414V32.32a2.464,2.464,0,0,1,4.929,0V60.912a1.737,1.737,0,0,0,3.424.414L101,38.265a2.464,2.464,0,0,1,4.787,1.175l-5.575,22.72a1.737,1.737,0,0,0,3.235,1.2l7.761-15.278c.948-2.317,4.555-.72,3.473,1.537l-6.908,14.93a1.737,1.737,0,0,0-.16.693,84.085,84.085,0,0,1-.835,9.279,1.737,1.737,0,0,0,3.437.5,88.183,88.183,0,0,0,.861-9.342l6.759-14.607A5.336,5.336,0,0,0,118,46.97Zm-65.235,40.3v4.674a.58.58,0,0,1-.579.579H36.823a1.737,1.737,0,0,0,0,3.474H48.34v18.864H24.129V96h5.747a1.737,1.737,0,0,0,0-3.474H20.369a.58.58,0,0,1-.579-.579V87.268a.58.58,0,0,1,.579-.579H52.186a.58.58,0,0,1,.579.579ZM78.79,114.859v-6.313H98.683v6.313Zm23.519-13.95v3.945a.218.218,0,0,1-.218.218H75.239a.218.218,0,0,1-.218-.218v-3.945a.218.218,0,0,1,.218-.218h26.853a.218.218,0,0,1,.218.218Z" transform="translate(0.001 0)" fill="url(#linear-gradient)"/>
  </g>
</svg>
