<svg xmlns="http://www.w3.org/2000/svg" xmlns:xlink="http://www.w3.org/1999/xlink" width="118.333" height="118.333" viewBox="0 0 118.333 118.333">
  <defs>
    <linearGradient id="linear-gradient" x1="0.054" x2="0.919" y2="1" gradientUnits="objectBoundingBox">
      <stop offset="0" stop-color="#ff8592"/>
      <stop offset="1" stop-color="#b871bd"/>
    </linearGradient>
  </defs>
  <g id="achievement" transform="translate(-6)">
    <path id="Tracé_226" data-name="Tracé 226" d="M111.424,38.155l6.82-20.465a1.733,1.733,0,0,0-1.644-2.281H93.585V8.736A1.733,1.733,0,0,0,91.851,7H69.756a1.733,1.733,0,1,0,0,3.467H90.118V49.027H53.9V10.47h7.771a1.733,1.733,0,0,0,0-3.467H53.9V4.068A4.073,4.073,0,0,0,49.828,0H45.158A4.073,4.073,0,0,0,41.09,4.068V57.2H36.614a11.137,11.137,0,0,0-6.67,2.234l-1.9,1.431a1.733,1.733,0,1,0,2.089,2.767l1.9-1.43a7.651,7.651,0,0,1,4.581-1.534h4.477v5.873H37.219a1.733,1.733,0,0,0,0,3.467H61.39a3.018,3.018,0,0,1,3.045,2.826A2.935,2.935,0,0,1,61.5,75.877H42.824a1.733,1.733,0,1,0,0,3.467H66.058a3.02,3.02,0,0,1,3.047,2.827,2.938,2.938,0,0,1-2.936,3.046H42.824a1.733,1.733,0,1,0,0,3.467H61.5a2.936,2.936,0,0,1,2.934,3.045,3.019,3.019,0,0,1-3.045,2.828H42.824a1.733,1.733,0,0,0,0,3.467H56.832a2.935,2.935,0,0,1,2.934,3.045,3.02,3.02,0,0,1-3.048,2.826l-45.779.018v-31.8H15.2a11.126,11.126,0,0,0,6.67-2.236L23.683,68.5a1.733,1.733,0,0,0-2.09-2.766L19.778,67.1A7.639,7.639,0,0,1,15.2,68.64H1.733A1.733,1.733,0,0,0,0,70.373v35.273a1.733,1.733,0,0,0,1.733,1.733l39.357-.013v6.9a4.073,4.073,0,0,0,4.068,4.068h4.669a4.073,4.073,0,0,0,4.068-4.068v-6.9h2.823a6.515,6.515,0,0,0,6.512-6.169,6.365,6.365,0,0,0-.753-3.26,6.5,6.5,0,0,0,5.421-6.08,6.365,6.365,0,0,0-.744-3.243,6.409,6.409,0,0,0,5.415-6.56,6.41,6.41,0,0,0-5.421-6.084,6.367,6.367,0,0,0,.75-3.256,6.435,6.435,0,0,0-6.509-6.169H53.9V52.494H65.839v6.672A1.737,1.737,0,0,0,67.577,60.9H96.06a1.733,1.733,0,1,0,0-3.467H77.878L92.419,52.4a1.754,1.754,0,0,0,1.166-1.7V18.875h20.61l-6.243,18.732a1.734,1.734,0,0,0,0,1.1l6.243,18.73H104.149a1.733,1.733,0,1,0,0,3.467H116.6a1.734,1.734,0,0,0,1.644-2.282ZM3.467,72.106H7.472v31.806H3.467Zm46.962,42.158a.6.6,0,0,1-.6.6H45.159a.6.6,0,0,1-.6-.6v-6.9l5.872,0ZM44.557,66.539V4.068a.6.6,0,0,1,.6-.6h4.669a.6.6,0,0,1,.6.6V66.539ZM81.548,52.494,69.306,56.732V52.494Z" transform="translate(6 0)" fill="url(#linear-gradient)"/>
  </g>
</svg>
