<svg xmlns="http://www.w3.org/2000/svg" xmlns:xlink="http://www.w3.org/1999/xlink" width="118.333" height="118.332" viewBox="0 0 118.333 118.332">
  <defs>
    <linearGradient id="linear-gradient" x1="0.055" x2="0.932" y2="1" gradientUnits="objectBoundingBox">
      <stop offset="0" stop-color="#ff8592"/>
      <stop offset="1" stop-color="#b871bd"/>
    </linearGradient>
  </defs>
  <g id="target" transform="translate(0)">
    <path id="Tracé_239" data-name="Tracé 239" d="M103,28.618a4.2,4.2,0,0,0,2.965-1.228l11.618-11.618a2.556,2.556,0,0,0-1.646-4.354l-6.182-.388L113.79,7a1.733,1.733,0,1,0-2.451-2.451L107.3,8.579,106.916,2.4A2.556,2.556,0,0,0,102.562.751L90.944,12.368a4.2,4.2,0,0,0-1.22,3.228l.4,6.362a54.7,54.7,0,0,0-75.9,78.477A1.734,1.734,0,0,0,16.791,98.1,51.252,51.252,0,0,1,89.7,26.182l-7.909,7.909A40.109,40.109,0,0,0,19,81.988h0A40.134,40.134,0,0,0,93.993,71.8a1.733,1.733,0,1,0-3.394-.7,36.667,36.667,0,0,1-68.516,9.3h0a36.19,36.19,0,0,1-4.058-16.757,36.631,36.631,0,0,1,61.316-27.1L71.5,44.38a25.608,25.608,0,1,0,2.451,2.451l7.839-7.839A36.51,36.51,0,0,1,91.36,63.428a1.733,1.733,0,0,0,1.733,1.723h.01a1.734,1.734,0,0,0,1.723-1.743A39.968,39.968,0,0,0,84.244,36.541l7.91-7.91a51.252,51.252,0,0,1-69.68,74.839,1.733,1.733,0,1,0-2.182,2.694,54.694,54.694,0,0,0,89.092-42.522A54.249,54.249,0,0,0,98.628,31.065q-1.093-1.472-2.271-2.856c6.8.427,6.429.409,6.644.409ZM76.8,63.642a22.137,22.137,0,1,1-7.758-16.8l-7.888,7.888a11.036,11.036,0,1,0,2.452,2.451L71.5,49.289A22.015,22.015,0,0,1,76.8,63.642ZM53.466,64.868a1.733,1.733,0,0,0,2.451,0l5.2-5.2a7.561,7.561,0,1,1-2.451-2.451l-5.2,5.2a1.733,1.733,0,0,0,0,2.451ZM93.184,15.379a.726.726,0,0,1,.211-.56L103.583,4.633l.453,7.215L93.616,22.267Zm2.884,9.339L106.487,14.3l7.215.453L103.514,24.939a.724.724,0,0,1-.56.211Z" transform="translate(0 -0.002)" fill="url(#linear-gradient)"/>
  </g>
</svg>
