<svg id="Français" xmlns="http://www.w3.org/2000/svg" width="300.342" height="496.42" viewBox="0 0 300.342 496.42">
  <g id="Homepage">
    <g id="undraw_fall_thyk">
      <path id="Path" d="M17.456,171.268a11.287,11.287,0,0,1,13.41,8.98,11.735,11.735,0,0,1-8.637,13.943c-6.088,1.37-22.229-7-22.229-7S11.368,172.638,17.456,171.268Z" transform="translate(0 95.106)" fill="#ff8693"/>
      <path id="Path-2" data-name="Path" d="M15.712,304.468a12.246,12.246,0,0,1,20.985,3.65,12.5,12.5,0,0,1-2.089,12.226C30.264,325.61,11,329.567,11,329.567S11.367,309.734,15.712,304.468Z" transform="translate(6.118 166.853)" fill="#ff8693"/>
      <path id="Path-3" data-name="Path" d="M152.494,440.92c-25.908-14.39-42.037-34.036-47.939-58.392-4.382-18.084-3.123-38.433,3.742-60.483a161.752,161.752,0,0,1,22.61-45.5c52.469-74,57.2-122.212,51.938-149.63-5.774-30.063-24.535-42.549-24.724-42.672l.81-1.241c.194.125,19.449,12.9,25.362,43.575,3.409,17.683,1.805,37.847-4.767,59.931C171.347,213.989,155.4,244.57,132.12,277.4a160.286,160.286,0,0,0-22.4,45.086c-11.259,36.165-12.852,85.845,43.5,117.146Z" transform="translate(56.73 46.163)" fill="#2f2e41"/>
      <path id="Path-4" data-name="Path" d="M109.363,271.606C88.577,260.192,89.155,242.1,93.3,228.935a57.512,57.512,0,0,1,8.167-16.253c18.707-26.085,20.4-43.031,18.521-52.653-2.037-10.449-8.573-14.738-8.639-14.78l.824-1.249c.29.186,7.142,4.683,9.3,15.748,2.809,14.408-3.506,32.507-18.771,53.793a56.024,56.024,0,0,0-7.958,15.834c-3.98,12.64-4.547,30,15.354,40.93Z" transform="translate(50.612 80.089)" fill="#2f2e41"/>
      <path id="Path-5" data-name="Path" d="M166.76,166.606l-.736-1.3c19.9-10.929,19.334-28.291,15.354-40.93a56.025,56.025,0,0,0-7.958-15.834c-15.265-21.286-21.58-39.384-18.771-53.793,2.157-11.065,9.009-15.562,9.3-15.748l.825,1.248c-.066.043-6.635,4.389-8.651,14.84-1.855,9.617-.146,26.547,18.533,52.594a57.52,57.52,0,0,1,8.167,16.253C186.968,137.1,187.547,155.191,166.76,166.606Z" transform="translate(85.651 21.691)" fill="#2f2e41"/>
      <path id="Path-6" data-name="Path" d="M205.39,89.608a23.535,23.535,0,0,1-20.576,9.826,23.182,23.182,0,0,1-19.323-11.869,20.635,20.635,0,0,1,1.262-21.69C173.713,55.828,208.758,45,208.758,45S212.351,79.562,205.39,89.608Z" transform="translate(90.657 25.028)" fill="#ff8693"/>
      <path id="Path-7" data-name="Path" d="M200.39,44.608a23.535,23.535,0,0,1-20.576,9.826,23.182,23.182,0,0,1-19.323-11.869,20.635,20.635,0,0,1,1.262-21.69C168.713,10.828,203.758,0,203.758,0S207.351,34.562,200.39,44.608Z" transform="translate(87.876)" fill="#22a697"/>
      <path id="Shape" d="M170.21,207.685a23.251,23.251,0,0,1-22.633-18.328A23.645,23.645,0,0,1,160.208,162.9c11.286-5.463,45.139,2.534,46.575,2.877l.908.217-.406.853c-.642,1.348-15.859,33.086-27.147,38.548h0A22.729,22.729,0,0,1,170.21,207.685ZM172.1,162.52c-4.591,0-8.615.482-11.244,1.755A22.17,22.17,0,0,0,150.6,193.62,21.531,21.531,0,0,0,179.5,204.029c9.819-4.752,23.476-31.793,26.026-36.981-4.08-.92-20.872-4.527-33.426-4.527Z" transform="translate(81.758 89.544)" fill="#2f2e41"/>
      <path id="Path-8" data-name="Path" d="M148.163,64.664a22.8,22.8,0,0,1,6.679,21.446,22.335,22.335,0,0,1-14.849,16.629,21.7,21.7,0,0,1-21.528-4.817C109.47,89.548,104,54,104,54S139.169,56.29,148.163,64.664Z" transform="translate(57.842 30.033)" fill="#ff8693"/>
      <path id="Path-9" data-name="Path" d="M115.164,123.664a22.839,22.839,0,0,1,1.436,31.792,21.721,21.721,0,0,1-31.135,1.466C76.47,148.548,71,113,71,113S106.169,115.29,115.164,123.664Z" transform="translate(39.488 62.848)" fill="#22a697"/>
      <path id="Shape-2" data-name="Shape" d="M145.68,137.454c-7.289,0-21.227-7.362-21.867-7.7L123,129.32l.573-.752c.489-.643,12.059-15.761,18.566-17.264h0c6.725-1.553,13.357,3,14.813,10.176s-2.816,14.247-9.541,15.8a7.762,7.762,0,0,1-1.731.175Zm-20.388-8.664c3.433,1.748,16.58,8.18,21.811,6.971,5.935-1.375,9.7-7.62,8.418-13.952s-7.138-10.355-13.075-8.988C137.214,114.03,127.739,125.685,125.292,128.791Z" transform="translate(68.41 61.735)" fill="#2f2e41"/>
      <path id="Path-10" data-name="Path" d="M86.465,299.149a11.479,11.479,0,0,1,15.939-4.574,12.37,12.37,0,0,1,4.424,16.521c-3.182,5.83-20.552,13.027-20.552,13.027S83.283,304.979,86.465,299.149Z" transform="translate(47.275 162.959)" fill="#22a697"/>
      <path id="Shape-3" data-name="Shape" d="M65.534,250.455a96.868,96.868,0,0,1-14.658-1.376L50,248.924l.33-.9c.282-.767,6.966-18.824,12.629-22.31h0a11.318,11.318,0,0,1,12.173.12,13.87,13.87,0,0,1-.19,22.96C72.907,250.049,69.324,250.455,65.534,250.455ZM51.995,247.7c3.678.58,17.694,2.554,22.247-.247,5.169-3.182,6.99-10.325,4.068-15.954s-9.481-7.612-14.65-4.43h0C59.107,229.867,53.434,243.964,51.995,247.7Z" transform="translate(27.809 124.583)" fill="#2f2e41"/>
    </g>
  </g>
</svg>
