<svg xmlns="http://www.w3.org/2000/svg" width="231.709" height="336.124" viewBox="0 0 231.709 336.124">
  <g id="IlluFleur" transform="translate(0 0.47)">
    <g id="Homepage" transform="translate(0 0.53)">
      <g id="undraw_coolness_dtmq">
        <path id="Path" d="M91.915,161.487c-20.931,31.484-15.2,71.529-15.2,71.529s39.671-11,60.6-42.487S152.518,119,152.518,119,112.846,130,91.915,161.487Z" transform="translate(63.761 100.214)" fill="#22a697"/>
        <path id="Path-2" data-name="Path" d="M117.264,227.821s-.508-.08-1.442-.266c-.745-.149-1.771-.362-3.024-.654-11.2-2.6-40.98-11.394-60.45-34.511C27.98,163.442,29.006,123,29.006,123s37.259,5.963,61.811,31.958q1.6,1.676,3.105,3.473c21.2,25.187,23.18,59.075,23.336,67.453C117.28,227.14,117.264,227.821,117.264,227.821Z" transform="translate(24.33 103.57)" fill="#ff8693"/>
        <path id="Path-3" data-name="Path" d="M98.322,161.487c20.931,31.484,15.2,71.529,15.2,71.529s-39.671-11-60.6-42.487S37.719,119,37.719,119,77.39,130,98.322,161.487Z" transform="translate(31.042 100.214)" fill="none" stroke="#22a697" stroke-width="2" fill-rule="evenodd"/>
        <path id="Path-4" data-name="Path" d="M86.906,213.156c-.49.666-.922,1.234-1.277,1.7-.787,1.012-1.234,1.542-1.234,1.542s-.543-.768-1.455-2.208c-5.008-7.868-21.116-35.845-19.872-68.162q.1-2.541.331-5.027,1.419,1.7,2.761,3.534C85.01,170.157,86.767,204.633,86.906,213.156Z" transform="translate(52.854 118.671)" opacity="0.1"/>
        <path id="Path-5" data-name="Path" d="M120.927,177.255c-1.737,37.07-31.568,65.989-31.568,65.989S62.344,212.059,64.08,174.989,95.648,109,95.648,109,122.664,140.185,120.927,177.255Z" transform="translate(53.693 91.825)" fill="#ff8693"/>
        <ellipse id="Oval" cx="3.616" cy="4.018" rx="3.616" ry="4.018" transform="translate(16.874 270.787)" fill="#ff6584"/>
        <path id="Path-6" data-name="Path" d="M48,181H191.439" transform="translate(40.27 152.23)" fill="none" stroke="#22a697" stroke-width="2" fill-rule="evenodd"/>
        <path id="Path-7" data-name="Path" d="M0,181H68.042" transform="translate(0 152.23)" fill="none" stroke="#22a697" stroke-width="2" fill-rule="evenodd"/>
        <path id="Path-8" data-name="Path" d="M19,200.457V160" transform="translate(15.94 134.612)" fill="#22a697" stroke="#22a697" stroke-width="2"/>
        <ellipse id="Oval-2" data-name="Oval" cx="5.223" cy="5.625" rx="5.223" ry="5.625" transform="translate(29.73 289.268)" fill="#22a697"/>
        <path id="Path-9" data-name="Path" d="M27.39,182.551S26.534,164.02,9,166.174" transform="translate(7.551 139.645)" fill="#22a697"/>
        <ellipse id="Oval-3" data-name="Oval" cx="9.241" cy="10.848" rx="9.241" ry="10.848" transform="translate(138.206 169.543)" fill="#22a697"/>
        <circle id="Oval-4" data-name="Oval" cx="9.241" cy="9.241" r="9.241" transform="translate(105.261 171.954)" fill="none" stroke="#22a697" stroke-width="2"/>
        <circle id="Oval-5" data-name="Oval" cx="9.241" cy="9.241" r="9.241" transform="translate(167.936 171.954)" fill="none" stroke="#22a697" stroke-width="2"/>
        <path id="Path-10" data-name="Path" d="M78,242.405,85.356,110" transform="translate(65.439 92.664)" fill="none" stroke="#22a697" stroke-width="2" fill-rule="evenodd"/>
        <circle id="Oval-6" data-name="Oval" cx="9.241" cy="9.241" r="9.241" transform="translate(202.488 46.604)" fill="none" stroke="#22a697" stroke-width="2"/>
        <circle id="Oval-7" data-name="Oval" cx="9.241" cy="9.241" r="9.241" transform="translate(165.526)" fill="none" stroke="#22a697" stroke-width="2"/>
        <circle id="Oval-8" data-name="Oval" cx="29.329" cy="29.329" r="29.329" transform="translate(62.675 24.909)" fill="#ff8693"/>
      </g>
    </g>
  </g>
</svg>
