<svg xmlns="http://www.w3.org/2000/svg" width="1775.257" height="540" viewBox="0 0 1775.257 540">
  <g id="IlluArbres" transform="translate(48 2.817)" opacity="0.999">
    <g id="Homepage" transform="translate(0 -0.817)">
      <g id="undraw_through_the_park_lxnl" transform="translate(0 0)">
        <ellipse id="Oval" cx="140.244" cy="139.5" rx="140.244" ry="139.5" transform="translate(-48 -2)" fill="#ff8693"/>
        <path id="Path" d="M236.284,24A138.782,138.782,0,0,1,5,170.758,138.777,138.777,0,1,0,236.284,24Z" transform="translate(-43.131 22.509)" opacity="0.2"/>
        <path id="Path-2" data-name="Path" d="M72.908,72h.363l6.545,394.751H66Z" transform="translate(29.268 71.249)" fill="#3f3d56"/>
        <path id="Rectangle" d="M0,0,6.9.005l.021,26.034-6.9-.005Z" transform="translate(126.836 350.13) rotate(62.234)" fill="#3f3d56"/>
        <path id="Path-3" data-name="Path" d="M106,275.842s.643-13.259,13.816-11.718" transform="translate(85.099 245.142)" fill="#3f3d56"/>
        <circle id="Oval-2" data-name="Oval" cx="6.324" cy="6.324" r="6.324" transform="translate(183.508 498.456)" fill="#22a697"/>
        <rect id="Rectangle-2" data-name="Rectangle" width="4.836" height="12.648" transform="translate(188.344 514.08)" fill="#3f3d56"/>
        <path id="Path-4" data-name="Path" d="M48,268.843s.643-13.259,13.816-11.718" transform="translate(11.74 251.393)" fill="#3f3d56"/>
        <ellipse id="Oval-3" data-name="Oval" cx="6.324" cy="7.068" rx="6.324" ry="7.068" transform="translate(52.792 496.992)" fill="#22a697"/>
        <rect id="Rectangle-3" data-name="Rectangle" width="4.836" height="12.648" transform="translate(55.768 509.268)" fill="#3f3d56"/>
        <path id="Path-5" data-name="Path" d="M237.824,76.45l7.913-6.361c-6.147-.682-8.673,2.688-9.707,5.355-4.8-2-10.031.622-10.031.622l15.833,5.776a12.036,12.036,0,0,0-4.008-5.393Z" transform="translate(220.068 69.301)" fill="#3f3d56"/>
        <path id="Path-6" data-name="Path" d="M161.824,101.45l7.913-6.361c-6.147-.682-8.673,2.688-9.707,5.355-4.8-2-10.031.622-10.031.622l15.833,5.776a12.036,12.036,0,0,0-4.008-5.393Z" transform="translate(146.063 93.645)" fill="#3f3d56"/>
        <path id="Path-7" data-name="Path" d="M182.824,50.45l7.913-6.361c-6.147-.682-8.673,2.688-9.707,5.355-4.8-2-10.031.622-10.031.622l15.833,5.776a12.036,12.036,0,0,0-4.008-5.393Z" transform="translate(166.512 43.984)" fill="#3f3d56"/>
        <g id="Group-2" transform="translate(414.488 74.021)">
          <ellipse id="Oval-4" data-name="Oval" cx="83.885" cy="84.024" rx="83.885" ry="84.024" transform="translate(1145 139)" fill="#ff8693"/>
          <path id="Path-8" data-name="Path" d="M142.432,13.443c15.951,38.294,2.512,82.809-31.741,105.138s-79.225,15.891-106.217-15.2c12.892,30.954,42.371,51.18,75.168,51.574s62.73-19.118,76.323-49.754a86.727,86.727,0,0,0-13.533-91.753Z" transform="translate(1149.356 152.09)" opacity="0.2"/>
          <path id="Path-9" data-name="Path" d="M44.678,41.45h.233L49.093,281.36h-8.83Z" transform="translate(1184.206 179.362)" fill="#3f3d56"/>
          <path id="Path-10" data-name="Path" d="M54.243,165.683s.462-9.9,9.934-8.752" transform="translate(1197.82 291.722)" fill="#3f3d56"/>
          <ellipse id="Oval-5" data-name="Oval" cx="4.967" cy="4.975" rx="4.967" ry="4.975" transform="translate(1245.441 439.716)" fill="#22a697"/>
          <rect id="Rectangle-4" data-name="Rectangle" width="3.311" height="9.95" transform="translate(1247.648 450.772)" fill="#3f3d56"/>
          <path id="Path-11" data-name="Path" d="M28.52,125.4s.308-6.189,6.622-5.47" transform="translate(1172.771 255.723)" fill="#3f3d56"/>
          <ellipse id="Oval-6" data-name="Oval" cx="3.311" cy="3.317" rx="3.311" ry="3.317" transform="translate(1195.772 370.065)" fill="#22a697"/>
          <rect id="Rectangle-5" data-name="Rectangle" width="2.207" height="6.633" transform="translate(1199.083 378.909)" fill="#3f3d56"/>
        </g>
      </g>
    </g>
  </g>
</svg>
