<svg xmlns="http://www.w3.org/2000/svg" xmlns:xlink="http://www.w3.org/1999/xlink" width="1249.371" height="1239.42" viewBox="0 0 1249.371 1239.42">
  <defs>
    <filter id="Tracé_179" x="35.3" y="0" width="1214.071" height="1212.555" filterUnits="userSpaceOnUse">
      <feOffset dy="1" input="SourceAlpha"/>
      <feGaussianBlur stdDeviation="10.5" result="blur"/>
      <feFlood flood-opacity="0.161"/>
      <feComposite operator="in" in2="blur"/>
      <feComposite in="SourceGraphic"/>
    </filter>
  </defs>
  <g id="illustrationHome_V3" transform="translate(-703.615 30.013)">
    <path id="Tracé_178" data-name="Tracé 178" d="M-1637.385,5064.044s64.552,185.147,210.984,223.792-38.709,415.286,95.172,482.487,372.242,142.822,462.019,386.864,449.616,27.97,449.616,27.97V5064.044Z" transform="translate(2341 -5064)" fill="#1b7e73"/>
    <g transform="matrix(1, 0, 0, 1, 703.61, -30.01)" filter="url(#Tracé_179)">
      <path id="Tracé_179-2" data-name="Tracé 179" d="M-1651.582,5064.487s-3.021,126.317,186.413,181.937-34.1,432.272,93.651,493.134,369.374,163.792,463.862,375.779,407.142,16.539,407.142,16.539V5064.487Z" transform="translate(1718.39 -5033.99)" fill="#23a596"/>
    </g>
    <g id="undraw_Scrum_board_re_wk7v" transform="translate(982 178.613)">
      <path id="Tracé_225" data-name="Tracé 225" d="M28,0H731.3V542H28A28,28,0,0,1,0,514V28A28,28,0,0,1,28,0Z" transform="translate(207 80.387)" fill="#fff"/>
      <path id="Tracé_180" data-name="Tracé 180" d="M426.335,242.453H352.291A26.872,26.872,0,0,0,325.443,269.3v80.276c-.947-.057-1.893-.141-2.826-.254a94.673,94.673,0,1,1,103.294-109.7C426.066,240.56,426.208,241.507,426.335,242.453Z" transform="translate(-121.09 -161.495)" fill="#1b7e73"/>
      <path id="Tracé_181" data-name="Tracé 181" d="M1031.721,216.985l-704.976-.49A28.938,28.938,0,0,0,297.838,245.4V732.688a28.938,28.938,0,0,0,28.907,28.907l703.039-.424Zm-1.937,542.26-703.039-.4a26.177,26.177,0,0,1-26.154-26.154V245.4a26.177,26.177,0,0,1,26.154-26.154l704.976.3Z" transform="translate(-93.75 -137.384)" fill="#3f3d56"/>
      <path id="Tracé_182" data-name="Tracé 182" d="M1052.413,274.75H352a1.478,1.478,0,0,1,0-2.886h700.417a1.478,1.478,0,0,1,0,2.886Z" transform="translate(-117.571 -111.179)" fill="#3f3d56"/>
      <path id="Tracé_183" data-name="Tracé 183" d="M523.281,716.064a1.443,1.443,0,0,1-1.443-1.443V239.938a1.443,1.443,0,0,1,2.886,0V714.621a1.443,1.443,0,0,1-1.443,1.443Z" transform="translate(-41.851 -125.955)" fill="#3f3d56"/>
      <path id="Tracé_184" data-name="Tracé 184" d="M674.281,716.064a1.443,1.443,0,0,1-1.443-1.443V239.938a1.443,1.443,0,0,1,2.886,0V714.621A1.443,1.443,0,0,1,674.281,716.064Z" transform="translate(25.013 -125.955)" fill="#3f3d56"/>
      <path id="Tracé_185" data-name="Tracé 185" d="M825.281,716.064a1.443,1.443,0,0,1-1.443-1.443V239.938a1.443,1.443,0,0,1,2.886,0V714.621A1.443,1.443,0,0,1,825.281,716.064Z" transform="translate(91.876 -125.955)" fill="#3f3d56"/>
      <path id="Tracé_186" data-name="Tracé 186" d="M434.772,388.536H390.2a5.5,5.5,0,0,1-5.489-5.489V330.452a5.5,5.5,0,0,1,5.489-5.489h44.569a5.5,5.5,0,0,1,5.489,5.489v52.595a5.5,5.5,0,0,1-5.489,5.489Z" transform="translate(-89.931 -62.667)" fill="#ff8592"/>
      <path id="Tracé_187" data-name="Tracé 187" d="M486.772,511.536H442.2a5.5,5.5,0,0,1-5.489-5.489V453.452a5.5,5.5,0,0,1,5.489-5.489h44.569a5.5,5.5,0,0,1,5.489,5.489v52.595A5.5,5.5,0,0,1,486.772,511.536Z" transform="translate(-78.505 -35.638)" fill="#ff8592"/>
      <path id="Tracé_188" data-name="Tracé 188" d="M598.71,406.837H559.538a4.829,4.829,0,0,1-4.824-4.824V355.787a4.83,4.83,0,0,1,4.824-4.824H598.71a4.83,4.83,0,0,1,4.824,4.824v46.226A4.83,4.83,0,0,1,598.71,406.837Z" transform="translate(-7.967 -35.154)" fill="#ff8592"/>
      <path id="Tracé_189" data-name="Tracé 189" d="M755.992,365.275H713.008a5.3,5.3,0,0,1-5.294-5.294V309.257a5.3,5.3,0,0,1,5.294-5.294h42.984a5.3,5.3,0,0,1,5.294,5.294v50.725A5.3,5.3,0,0,1,755.992,365.275Z" transform="translate(58.66 -71.366)" fill="#ff8592"/>
      <path id="Tracé_193" data-name="Tracé 193" d="M808.992,438.275H766.008a5.3,5.3,0,0,1-5.294-5.294V382.257a5.3,5.3,0,0,1,5.294-5.294h42.984a5.3,5.3,0,0,1,5.294,5.294v50.725A5.3,5.3,0,0,1,808.992,438.275Z" transform="translate(68.008 -58.491)" fill="#b871bd"/>
      <path id="Tracé_194" data-name="Tracé 194" d="M737.992,454.275H695.008a5.3,5.3,0,0,1-5.294-5.294V398.257a5.3,5.3,0,0,1,5.294-5.294h42.985a5.3,5.3,0,0,1,5.294,5.294v50.725A5.3,5.3,0,0,1,737.992,454.275Z" transform="translate(55.485 -55.669)" fill="#23a596"/>
      <path id="Tracé_195" data-name="Tracé 195" d="M580.71,516.837H541.538a4.83,4.83,0,0,1-4.824-4.824V465.787a4.83,4.83,0,0,1,4.824-4.824H580.71a4.83,4.83,0,0,1,4.824,4.824v46.226a4.83,4.83,0,0,1-4.824,4.824Z" transform="translate(-9.264 -27.23)" fill="#23a596"/>
      <path id="Tracé_196" data-name="Tracé 196" d="M401.772,467.536H357.2a5.5,5.5,0,0,1-5.489-5.489V409.452a5.5,5.5,0,0,1,5.489-5.489h44.569a5.5,5.5,0,0,1,5.489,5.489v52.595a5.5,5.5,0,0,1-5.489,5.489Z" transform="translate(-97.183 -45.307)" fill="#b871bd"/>
      <path id="Tracé_197" data-name="Tracé 197" d="M504.772,388.536H460.2a5.5,5.5,0,0,1-5.489-5.489V330.452a5.5,5.5,0,0,1,5.489-5.489h44.569a5.5,5.5,0,0,1,5.489,5.489v52.595a5.5,5.5,0,0,1-5.489,5.489Z" transform="translate(-74.55 -62.667)" fill="#23a596"/>
      <path id="Tracé_198" data-name="Tracé 198" d="M492.849,261.038h-82.24a5.771,5.771,0,0,1,0-11.542h82.24a5.771,5.771,0,1,1,0,11.542Z" transform="translate(-93.659 -121.084)" fill="#23a596"/>
      <path id="Tracé_199" data-name="Tracé 199" d="M653.849,261.038h-82.24a5.771,5.771,0,0,1,0-11.542h82.24a5.771,5.771,0,1,1,0,11.542Z" transform="translate(-22.368 -121.084)" fill="#23a596"/>
      <path id="Tracé_200" data-name="Tracé 200" d="M804.849,261.038h-82.24a5.771,5.771,0,1,1,0-11.542h82.24a5.771,5.771,0,1,1,0,11.542Z" transform="translate(44.496 -121.084)" fill="#23a596"/>
      <path id="Tracé_202" data-name="Tracé 202" d="M353.374,568.112a14.508,14.508,0,0,1-12.552-18.367l-36.983-34.427,19.554-4.961,36.367,29.5a14.587,14.587,0,0,1-6.385,28.259Z" transform="translate(-138.383 -5.574)" fill="#ffb8b8"/>
      <path id="Tracé_207" data-name="Tracé 207" d="M409.818,659.431,384,637.906a5.407,5.407,0,0,0-10.563-1.031c-1.784.611-41.915-21.034-41.561-22.664,9.195-67.765,17.22-76.031,23.13-85.786.489-.807.939-1.55,1.343-2.252.507-.878,3.625-9.587,5.6-15.242a6.911,6.911,0,0,1,3.513-4.3c24.832-12.7,53.885-3.909,62.2-.912a6.755,6.755,0,0,1,3.374,2.619c24.938,37.616,13.463,128.06,10.757,171.473Z" transform="translate(-145.689 -10.176)" fill="#2f2e41"/>
      <circle id="Ellipse_35" data-name="Ellipse 35" cx="35.437" cy="35.437" r="35.437" transform="translate(183.414 302.216)" fill="#ffb8b8"/>
      <path id="Tracé_208" data-name="Tracé 208" d="M351.251,550.38l-.255-.247c-.478-.462-47.693-46.718-41.582-89.489,2.613-18.294,17.415-29.983,42.8-33.806A39.15,39.15,0,0,1,395.5,454.427l25.1,85.824Z" transform="translate(-136.155 -42.745)" fill="#ff8592"/>
      <path id="Tracé_209" data-name="Tracé 209" d="M333.525,574.707l-33.644-33.431a18.954,18.954,0,0,1-5.021-17.879l16.287-66.252a14.94,14.94,0,1,1,28.84,7.782l-17.147,58.284,27.728,29.775Z" transform="translate(-142.595 -34.172)" fill="#ff8592"/>
      <path id="Tracé_210" data-name="Tracé 210" d="M466.941,462.439a14.508,14.508,0,0,1-21.474,5.813L400.553,491.53l1.985-19.775,39.817-24.641a14.587,14.587,0,0,1,24.586,15.325Z" transform="translate(-95.557 -35.999)" fill="#ffb8b8"/>
      <path id="Tracé_211" data-name="Tracé 211" d="M466.247,481.592l-43.784,18.92a18.481,18.481,0,0,1-18-1.931l-55.676-39.892A14.94,14.94,0,1,1,366.727,434.8l47.74,37.574L452.413,457.7Z" transform="translate(-121.242 -40.432)" fill="#ff8592"/>
      <path id="Tracé_212" data-name="Tracé 212" d="M371.083,419.351c4.372-5.477,12.539-5.772,18.544-9.385,7.866-4.733,11.118-15.309,8.583-24.132s-10.01-15.7-18.581-18.988-18.106-3.329-27.148-1.74c-13.462,2.367-26.715,8.65-34.925,19.577s-10.3,26.931-2.859,38.4c3.42,5.27,8.7,9.619,10.064,15.751,1.792,8.05-3.854,15.814-9.9,21.42-6.892,6.386-14.8,11.735-20.837,18.934s-10.064,17.034-7.309,26.017c2.309,7.526,9.026,13.071,16.392,15.848s15.389,3.178,23.26,3.332c7.643.15,15.761-.036,22.2-4.157,6.893-4.412,10.573-12.781,10.845-20.96s-2.461-16.192-6.124-23.51c-2.183-4.362-4.722-8.588-6.173-13.245s-1.7-9.941.621-14.23c2.442-4.508,7.383-7.227,12.414-8.216.261-.051.538-.1.827-.138a10.675,10.675,0,0,0,9.138-12.448C369.538,424.284,369.587,421.226,371.083,419.351Z" transform="translate(-146.358 -70.344)" fill="#2f2e41"/>
      <path id="Tracé_213" data-name="Tracé 213" d="M491.24,588.239H473.551l-8.414-68.227h26.106Z" transform="translate(205.965 230.265)" fill="#a0616a"/>
      <path id="Tracé_214" data-name="Tracé 214" d="M468.8,563.8h34.114v21.479H447.325A21.479,21.479,0,0,1,468.8,563.8Z" transform="translate(198.078 249.653)" fill="#2f2e41"/>
      <path id="Tracé_215" data-name="Tracé 215" d="M588.172,572.46l-16.089,7.348-36-58.562L559.826,510.4Z" transform="translate(237.379 226.009)" fill="#a0616a"/>
      <path id="Tracé_216" data-name="Tracé 216" d="M21.479,0H55.592V21.479H0A21.479,21.479,0,0,1,21.479,0Z" transform="translate(776.327 815.398) rotate(-24.548)" fill="#2f2e41"/>
      <path id="Tracé_217" data-name="Tracé 217" d="M732.835,589.65a14.508,14.508,0,0,0,1.156-22.217l20.793-47.18-26.416,4.477-15.7,44.116a14.587,14.587,0,0,0,20.163,20.8Z" transform="translate(41.203 -1.191)" fill="#a0616a"/>
      <path id="Tracé_218" data-name="Tracé 218" d="M681.616,794.836h-16.9a6.517,6.517,0,0,1-6.476-6.022l-9.215-246.083a6.492,6.492,0,0,1,7.106-6.932l97.728,10.379a6.5,6.5,0,0,1,5.861,6.339l2.048,108.55a5.035,5.035,0,0,0,.337,1.722L802.2,766.746a6.491,6.491,0,0,1-3.813,8.427l-17.124,6.309a6.494,6.494,0,0,1-8.018-3.122L723.995,682.6a6.45,6.45,0,0,1-.583-1.648L715,640.421a5.05,5.05,0,0,0-9.961.451l-16.97,148.21a6.491,6.491,0,0,1-6.451,5.754Z" transform="translate(14.462 5.679)" fill="#2f2e41"/>
      <circle id="Ellipse_36" data-name="Ellipse 36" cx="35.437" cy="35.437" r="35.437" transform="translate(669.055 285.124)" fill="#a0616a"/>
      <path id="Tracé_219" data-name="Tracé 219" d="M715.146,617.422a126.483,126.483,0,0,1-67.628-20.485l-.345-.238.036-.418,13.555-157.866a22.249,22.249,0,0,1,21.063-20.288c17.568-.807,41.165.211,53.8,9.618,19.089,14.218,28.29,35.628,25.243,58.74-6.32,47.928.839,112.581,1.676,119.8l.061.52-.476.218A111.479,111.479,0,0,1,715.146,617.422Z" transform="translate(13.648 -46.511)" fill="#b871bd"/>
      <path id="Tracé_220" data-name="Tracé 220" d="M734.729,595.361a7.224,7.224,0,0,1-5.31-2.34l-7.752-8.457a7.252,7.252,0,0,1-1.6-6.918l17.675-59.824-26.894-56.477a12.71,12.71,0,0,1,22.666-11.49l36.5,59.216a17.243,17.243,0,0,1,1.039,16.157l-29.736,65.886a7.2,7.2,0,0,1-5.434,4.155A7.289,7.289,0,0,1,734.729,595.361Z" transform="translate(41.298 -35.324)" fill="#b871bd"/>
      <path id="Tracé_221" data-name="Tracé 221" d="M555.728,477.535a14.509,14.509,0,0,0,21.64-5.162L628.5,479l-11.75-24.078L570,452.32a14.587,14.587,0,0,0-14.267,25.215Z" transform="translate(-29.483 -31.775)" fill="#a0616a"/>
      <path id="Tracé_222" data-name="Tracé 222" d="M659.637,505.812a19.372,19.372,0,0,1-2.661-.184l-80.439-11.156a8,8,0,0,1-6.133-4.489,8.157,8.157,0,0,1-.459-1.2h0a8.027,8.027,0,0,1,.83-6.394l6.656-11.036a8.057,8.057,0,0,1,6.862-3.875h.011l70.115.08,52.365-46.916A14.19,14.19,0,0,1,726.233,441.3l-52.251,58.114a19.282,19.282,0,0,1-14.344,6.4Z" transform="translate(-20.691 -46.902)" fill="#b871bd"/>
      <path id="Tracé_223" data-name="Tracé 223" d="M695.706,429.415c3.238-7.495,5.979-17.476-.233-22.775-3.6-3.074-8.792-3.08-13.513-3.462-13.3-1.077-26.988-7.2-33.489-18.848s-2.87-28.978,9.393-34.235c8.266-3.544,17.743-1.13,26.4,1.324l25.979,7.367c7.719,2.189,15.824,4.6,21.381,10.39,8.863,9.23,8.2,24.833,1.161,35.519S715.141,426.526,703,430.583Z" transform="translate(12.815 -77.329)" fill="#2f2e41"/>
      <path id="Tracé_224" data-name="Tracé 224" d="M572.079,740.294h-382.3c-.341,0-.617-.71-.617-1.585s.276-1.585.617-1.585h382.3c.341,0,.617.71.617,1.585S572.42,740.294,572.079,740.294Z" transform="translate(363.304 95.105)" fill="#3f3d56"/>
    </g>
    <g id="Français" transform="translate(1314.291 545.885)">
      <g id="Homepage" transform="translate(16.874 25.439)">
        <g id="undraw_coolness_dtmq">
          <path id="Path" d="M108.361,205.392c-42.562,64.02-30.9,145.446-30.9,145.446s80.668-22.372,123.229-86.392S231.591,119,231.591,119,150.923,141.372,108.361,205.392Z" transform="translate(173.878 276.099)" fill="#2f2e41"/>
          <path id="Path-2" data-name="Path" d="M208.476,336.142s-1.032-.162-2.932-.541c-1.516-.3-3.6-.736-6.15-1.33C176.618,328.982,116.065,311.1,76.476,264.1,26.926,205.235,29.013,123,29.013,123s75.763,12.125,125.686,64.983q3.245,3.407,6.315,7.063c43.114,51.214,47.134,120.124,47.452,137.159C208.509,334.758,208.476,336.142,208.476,336.142Z" transform="translate(45.129 287.057)" fill="#ff8693"/>
          <path id="Path-3" data-name="Path" d="M161.691,205.392c42.562,64.02,30.9,145.446,30.9,145.446s-80.668-22.372-123.229-86.392S38.461,119,38.461,119,119.129,141.372,161.691,205.392Z" transform="translate(67.044 276.099)" fill="#2f2e41" stroke="#22a697" stroke-width="2" fill-rule="evenodd"/>
          <path id="Path-4" data-name="Path" d="M111.611,287.722c-1,1.353-1.874,2.509-2.6,3.455-1.6,2.058-2.509,3.136-2.509,3.136s-1.1-1.563-2.958-4.489c-10.183-16-42.937-72.888-40.409-138.6q.205-5.166.674-10.222,2.885,3.466,5.614,7.185C107.755,200.287,111.328,270.391,111.611,287.722Z" transform="translate(138.267 336.365)" opacity="0.1"/>
          <path id="Path-5" data-name="Path" d="M179.756,247.79c-3.531,75.379-64.19,134.182-64.19,134.182s-54.934-63.411-51.4-138.79S128.354,109,128.354,109,183.287,172.411,179.756,247.79Z" transform="translate(141.006 248.706)" fill="#ff8693"/>
          <ellipse id="Oval" cx="7.352" cy="8.169" rx="7.352" ry="8.169" transform="translate(0 499.967)" fill="#ff6584"/>
          <ellipse id="Oval-2" data-name="Oval" cx="18.79" cy="22.057" rx="18.79" ry="22.057" transform="translate(246.716 294.098)" fill="#22a697"/>
          <path id="Path-6" data-name="Path" d="M78,379.232,92.957,110" transform="translate(179.357 251.445)" fill="none" stroke="#22a697" stroke-width="2" fill-rule="evenodd"/>
        </g>
      </g>
    </g>
    <g id="Français-2" data-name="Français" transform="translate(1694.126 650.304)">
      <g id="Homepage-2" data-name="Homepage" transform="translate(16.874 319.537)">
        <g id="undraw_coolness_dtmq-2" data-name="undraw_coolness_dtmq">
          <path id="Path-7" data-name="Path" d="M90.918,158.826c-19.62,29.513-14.244,67.049-14.244,67.049s37.187-10.313,56.808-39.826S147.726,119,147.726,119,110.539,129.313,90.918,158.826Z" transform="translate(39.191 -72.439)" fill="#2f2e41"/>
          <path id="Path-8" data-name="Path" d="M111.737,221.257s-.476-.075-1.352-.249c-.7-.14-1.66-.339-2.835-.613-10.5-2.438-38.414-10.68-56.664-32.35C28.044,160.91,29.006,123,29.006,123s34.926,5.589,57.94,29.957q1.5,1.571,2.911,3.256c19.875,23.609,21.728,55.376,21.875,63.229C111.752,220.618,111.737,221.257,111.737,221.257Z" transform="translate(5.173 -69.544)" fill="#ff8693"/>
          <path id="Path-9" data-name="Path" d="M94.481,158.826c19.62,29.513,14.244,67.049,14.244,67.049s-37.187-10.313-56.808-39.826S37.674,119,37.674,119,74.861,129.313,94.481,158.826Z" transform="translate(10.963 -72.439)" fill="#2f2e41" stroke="#22a697" stroke-width="2" fill-rule="evenodd"/>
          <path id="Path-10" data-name="Path" d="M85.409,208.637c-.459.624-.864,1.157-1.2,1.593-.738.949-1.157,1.446-1.157,1.446s-.509-.72-1.364-2.07C77,202.231,61.9,176.006,63.064,145.712q.095-2.382.311-4.712,1.33,1.6,2.588,3.312C83.632,168.331,85.279,200.648,85.409,208.637Z" transform="translate(29.782 -56.516)" opacity="0.1"/>
          <path id="Path-11" data-name="Path" d="M117.362,172.981c-1.628,34.749-29.591,61.857-29.591,61.857s-25.324-29.232-23.7-63.981S93.666,109,93.666,109,118.99,138.232,117.362,172.981Z" transform="translate(30.506 -79.677)" fill="#ff8693"/>
          <ellipse id="Oval-3" data-name="Oval" cx="3.389" cy="3.766" rx="3.389" ry="3.766" transform="translate(0 94.904)" fill="#ff6584"/>
          <path id="Path-12" data-name="Path" d="M78,234.113,84.9,110" transform="translate(38.639 -80.954)" fill="none" stroke="#22a697" stroke-width="2" fill-rule="evenodd"/>
        </g>
      </g>
    </g>
  </g>
</svg>
