<svg id="IlluNuage" xmlns="http://www.w3.org/2000/svg" width="97.237" height="47.339" viewBox="0 0 97.237 47.339">
  <g id="Homepage">
    <g id="undraw_web_browsing_p77h" transform="translate(0 0)">
      <path id="Path" d="M82.993,45.1H6.1S4.541,23.021,13.763,22.77s8.183,9.787,19.743-4.015S59.094,5.706,60.912,13.861s-3.507,14.68,6.235,12.673S90.917,29.8,82.993,45.1Z" transform="translate(1.677 2.235)" fill="#ff8693"/>
      <path id="Path-2" data-name="Path" d="M34.279,45.1,34,45.094c.65-14.487,4.038-23.794,6.765-29.052C43.727,10.334,46.58,8.023,46.609,8l.186.187c-.028.022-2.848,2.31-5.786,7.98C38.3,21.4,34.927,30.671,34.279,45.1Z" transform="translate(9.501 2.235)" fill="#f2f2f2"/>
      <path id="Path-3" data-name="Path" d="M56.247,40.633,56,40.561A39.5,39.5,0,0,1,66.062,24l.173.189A39.228,39.228,0,0,0,56.247,40.633Z" transform="translate(15.648 6.706)" fill="#f2f2f2"/>
      <path id="Path-4" data-name="Path" d="M16.132,41.75l-.231-.034a28.854,28.854,0,0,0-2.289-15.9A21.919,21.919,0,0,0,10,20.18l.162-.18a22.192,22.192,0,0,1,3.66,5.7A29.118,29.118,0,0,1,16.132,41.75Z" transform="translate(2.794 5.589)" fill="#f2f2f2"/>
      <path id="Shape" d="M94.272,47.339H.153l-.022-.318c-.054-.792-1.255-19.469,4.807-26.133A6.643,6.643,0,0,1,9.79,18.564a14.455,14.455,0,0,1,8.437,2.551C22,23.351,24.5,24.828,33.563,13.64,43.386,1.52,53.984-1.088,60.076.362A9.449,9.449,0,0,1,67.52,7.628a32.189,32.189,0,0,1,.32,9.391c-.206,2.815-.369,5.039.79,6.047.967.841,2.9.917,6.073.241,6.46-1.376,15.475-.2,20,5.638,2.434,3.14,4.352,8.847-.336,18.207ZM.8,46.656H93.848c3.493-7.075,3.6-13.052.313-17.295C90.01,24.007,81.3,22.6,74.845,23.974c-3.451.735-5.507.614-6.665-.394-1.416-1.232-1.242-3.606-1.023-6.611a31.622,31.622,0,0,0-.306-9.2,8.788,8.788,0,0,0-6.934-6.745c-5.9-1.4-16.2,1.17-25.823,13.043C24.656,25.716,21.813,24.032,17.878,21.7a13.731,13.731,0,0,0-8.069-2.456,5.984,5.984,0,0,0-4.365,2.1C0,27.336.662,44.131.8,46.656Z" transform="translate(0 0)" fill="#2f2e41"/>
    </g>
  </g>
</svg>
